<?xml version="1.0" standalone="no"?><!DOCTYPE svg PUBLIC "-//W3C//DTD SVG 1.1//EN" "http://www.w3.org/Graphics/SVG/1.1/DTD/svg11.dtd"><svg t="1730864654973" class="icon" viewBox="0 0 1024 1024" version="1.1" xmlns="http://www.w3.org/2000/svg" p-id="25299" id="mx_n_1730864654974" xmlns:xlink="http://www.w3.org/1999/xlink" width="200" height="200"><path d="M1024 905.841778A118.328889 118.328889 0 0 1 905.841778 1024H118.158222A118.328889 118.328889 0 0 1 0 905.841778V118.158222A118.328889 118.328889 0 0 1 118.158222 0h787.683556A118.328889 118.328889 0 0 1 1024 118.158222v787.683556zM905.841778 78.791111H118.158222a39.651556 39.651556 0 0 0-39.367111 39.367111v787.683556c0 21.560889 17.806222 39.367111 39.367111 39.367111h787.683556a39.651556 39.651556 0 0 0 39.367111-39.367111V118.158222a39.651556 39.651556 0 0 0-39.367111-39.367111z" fill="#fa5360" p-id="25300" data-spm-anchor-id="a313x.search_index.0.i21.10ab3a81VIqJYN" class="selected"></path><path d="M789.162667 220.273778c0 23.893333-19.854222 43.747556-43.804445 43.747555H278.641778a44.088889 44.088889 0 0 1-43.747556-43.804444c0-23.893333 19.854222-43.690667 43.804445-43.690667h466.773333c23.893333 0 43.747556 19.797333 43.747556 43.747556zM555.747556 796.899556c0 21.504-19.797333 39.367111-43.747556 39.367111-23.893333 0-43.804444-17.863111-43.804444-39.367111V389.916444c0-21.560889 19.911111-39.367111 43.804444-39.367111 23.893333 0 43.804444 17.806222 43.804444 39.367111v406.983112z m-12.8 36.352A40.391111 40.391111 0 0 1 512 848.213333a40.391111 40.391111 0 0 1-30.947556-14.961777L247.694222 560.981333a57.628444 57.628444 0 0 1 0-72.192 39.708444 39.708444 0 0 1 61.838222 0L512 724.992l202.467556-236.202667a39.708444 39.708444 0 0 1 61.838222 0c16.952889 19.740444 16.952889 52.451556 0 72.192l-233.358222 272.270223z" fill="#fb2233" p-id="25301" data-spm-anchor-id="a313x.search_index.0.i20.10ab3a81VIqJYN" class=""></path></svg>